<?xml version="1.0" standalone="no"?>
<!DOCTYPE svg PUBLIC "-//W3C//DTD SVG 20010904//EN"
 "http://www.w3.org/TR/2001/REC-SVG-20010904/DTD/svg10.dtd">
<svg version="1.0" xmlns="http://www.w3.org/2000/svg"
 width="1424.000000pt" height="1424.000000pt" viewBox="0 0 1424.000000 1424.000000"
 preserveAspectRatio="xMidYMid meet">
<metadata>
Created by potrace 1.14, written by Peter Selinger 2001-2017
</metadata>
<g transform="translate(0.000000,1424.000000) scale(0.100000,-0.100000)"
fill="#000000" stroke="none">
<path d="M475 9795 c-72 -16 -153 -47 -215 -82 -59 -33 -175 -153 -191 -198
-7 -19 -16 -35 -19 -35 -4 0 -7 -6 -8 -12 -1 -21 -12 -66 -21 -90 -15 -40 -6
-238 14 -293 43 -121 157 -232 385 -373 41 -26 77 -50 78 -54 2 -5 8 -8 14 -8
6 0 30 -13 55 -30 24 -16 46 -30 49 -30 2 0 37 -21 77 -47 345 -225 436 -362
351 -529 -79 -156 -254 -244 -425 -214 -83 15 -104 21 -157 45 -119 54 -227
152 -296 267 -30 50 -59 118 -61 140 0 3 -3 10 -7 14 -5 4 -8 15 -8 25 0 10
-7 37 -16 60 -14 33 -19 38 -30 27 -49 -49 -42 -356 11 -458 17 -33 61 -80
105 -112 33 -24 199 -91 251 -102 13 -3 40 -10 59 -16 78 -24 241 -32 343 -16
114 17 271 93 352 172 75 73 120 142 151 234 23 69 26 261 6 306 -50 108 -94
163 -180 230 -35 27 -69 54 -75 59 -7 6 -37 26 -67 45 -30 19 -57 37 -60 41
-3 3 -10 8 -15 10 -6 2 -62 36 -123 74 -62 39 -120 75 -130 80 -43 26 -107 71
-110 78 -2 4 -8 7 -13 7 -17 0 -170 123 -220 178 -62 68 -80 102 -84 161 -3
48 28 141 46 141 5 0 9 6 9 13 0 7 17 29 38 48 95 91 173 120 305 115 60 -2
106 -9 132 -20 22 -10 51 -23 65 -29 143 -64 276 -223 315 -377 1 -3 5 -14 9
-25 4 -11 13 -33 19 -50 6 -16 19 -43 29 -59 l17 -30 12 30 c12 30 17 237 7
289 -21 106 -84 202 -193 293 -30 25 -167 85 -228 99 -83 20 -276 24 -352 8z"/>
<path d="M6467 9803 c-4 -3 -7 -17 -7 -30 0 -32 47 -59 118 -67 108 -13 131
-55 147 -271 3 -38 8 -410 10 -825 5 -808 7 -885 19 -897 9 -9 1321 -7 1336 2
4 3 8 33 7 67 l-2 62 -280 2 c-154 2 -394 4 -532 6 l-253 3 0 620 c-1 640 -5
970 -14 1040 -14 104 -18 123 -34 160 -23 56 -58 91 -95 100 -18 4 -39 9 -47
11 -8 2 -87 6 -175 9 -88 3 -167 7 -176 10 -8 3 -18 2 -22 -2z"/>
<path d="M2367 9761 c-9 -20 -25 -61 -37 -90 -12 -30 -24 -60 -28 -65 -4 -6
-7 -13 -8 -16 -1 -8 -15 -42 -30 -77 -8 -17 -14 -34 -14 -37 0 -3 -11 -29 -24
-58 -13 -29 -43 -100 -66 -158 -23 -58 -45 -109 -48 -115 -4 -5 -7 -14 -8 -20
-1 -5 -25 -64 -54 -130 -28 -66 -66 -156 -83 -200 -17 -44 -35 -81 -39 -83 -4
-2 -8 -9 -8 -16 0 -10 -60 -160 -143 -356 -6 -14 -11 -27 -12 -30 -3 -9 -24
-59 -56 -132 -17 -40 -39 -93 -49 -118 -9 -25 -43 -108 -74 -184 -65 -160 -66
-156 27 -160 26 -1 51 0 56 3 5 4 34 69 66 146 31 77 63 154 71 172 8 17 14
33 14 36 0 3 10 27 22 54 11 26 22 53 24 58 1 6 8 24 15 40 7 17 13 32 14 35
25 68 22 66 78 63 28 -2 214 -5 412 -7 198 -3 364 -5 368 -5 4 -1 15 -18 23
-38 8 -21 19 -47 23 -58 5 -11 23 -57 41 -101 29 -76 88 -182 116 -211 7 -7
14 -16 16 -20 4 -11 118 -108 126 -108 4 -1 21 -8 37 -17 17 -8 44 -18 60 -22
17 -3 41 -9 55 -12 25 -5 123 -5 171 1 31 4 69 22 69 34 0 11 -29 34 -65 51
-67 32 -149 97 -186 149 -21 30 -39 58 -39 63 0 4 -16 42 -35 84 -19 41 -35
81 -35 88 0 6 -4 16 -9 21 -7 9 -80 182 -131 315 -38 98 -61 156 -70 175 -5
11 -23 56 -40 100 -17 44 -35 89 -40 100 -5 11 -23 56 -40 100 -18 44 -36 89
-41 100 -22 50 -91 221 -92 230 -2 6 -15 42 -31 80 -48 117 -52 127 -81 200
-15 39 -34 84 -41 102 -8 17 -14 36 -14 41 0 16 -21 26 -71 32 -46 6 -47 6
-62 -29z m12 -543 c44 -94 79 -178 181 -434 75 -188 79 -198 103 -254 8 -19
18 -45 21 -57 l7 -22 -338 3 c-313 3 -379 7 -371 25 2 4 21 52 43 107 21 54
43 101 47 102 4 2 8 9 8 16 0 12 101 257 146 353 13 28 24 54 24 57 0 5 28 69
67 154 9 17 17 32 19 32 2 0 21 -37 43 -82z"/>
<path d="M3510 9790 c-70 -9 -90 -31 -54 -61 17 -14 23 -15 87 -24 41 -6 98
-33 134 -63 21 -18 21 -24 23 -328 1 -361 11 -1361 13 -1483 2 -74 5 -86 24
-98 27 -18 260 -26 266 -9 2 6 3 230 2 498 l0 488 452 2 453 3 0 -60 c2 -239
10 -695 13 -720 15 -123 60 -180 157 -199 45 -9 202 -19 304 -20 l79 -1 1 29
c2 34 -17 56 -47 57 -139 4 -169 26 -195 144 -29 129 -31 203 -33 1113 -2 524
-5 732 -13 733 -53 5 -235 3 -247 -3 -15 -7 -17 -34 -19 -220 -4 -526 -7 -676
-13 -685 -7 -10 -108 -13 -677 -17 l-215 -1 -1 285 c-2 434 -15 525 -84 583
-43 37 -88 47 -220 53 -63 3 -122 6 -130 7 -8 2 -35 0 -60 -3z"/>
<path d="M6058 9794 c-2 -1 -52 -4 -111 -7 -60 -3 -111 -7 -113 -10 -3 -3 -7
-785 -9 -1739 -3 -1650 -4 -1970 -5 -2312 -1 -82 -3 -153 -6 -158 -3 -4 0 -8
6 -8 6 0 8 -5 5 -10 -8 -13 -9 -829 -1 -837 10 -10 259 -5 265 5 5 8 6 4960 2
5058 -1 17 -22 29 -33 18z"/>
<path d="M8965 6802 c-1 -1 -60 -4 -131 -6 -151 -4 -242 -14 -250 -28 -10 -16
12 -30 57 -34 124 -12 146 -34 174 -172 29 -139 34 -306 35 -1166 l1 -628 342
5 c317 5 402 9 467 23 14 2 41 7 60 9 39 5 73 12 98 19 9 3 28 7 42 10 26 4
140 40 175 55 48 21 151 76 163 88 7 7 16 13 20 13 8 0 52 36 101 83 68 65
171 236 186 307 2 8 9 35 16 60 7 25 14 52 15 60 2 8 5 29 8 45 26 144 24 377
-4 515 -26 124 -99 289 -162 360 -79 92 -122 133 -175 167 -15 9 -30 20 -33
23 -28 33 -291 136 -395 154 -111 20 -162 23 -405 31 -247 8 -401 11 -405 7z
m495 -127 c69 -5 121 -14 239 -45 75 -19 178 -79 251 -147 133 -123 225 -302
255 -498 3 -16 8 -38 11 -47 6 -20 7 -243 1 -273 -3 -11 -8 -40 -12 -65 -18
-121 -73 -263 -141 -370 -122 -192 -285 -300 -499 -329 -79 -11 -282 -7 -335
7 -19 5 -38 9 -43 10 -39 6 -44 46 -54 402 -7 267 -8 1078 -1 1202 3 53 11 94
19 104 21 25 74 44 137 50 32 3 59 8 61 10 3 2 12 2 20 -1 9 -2 50 -7 91 -10z"/>
<path d="M6498 6788 c-18 -6 -28 -17 -28 -29 0 -21 -2 -21 60 -24 67 -5 95
-11 127 -31 15 -10 29 -19 31 -20 10 -6 42 -115 47 -162 4 -31 9 -70 12 -87 3
-16 7 -396 9 -844 2 -448 5 -816 7 -817 5 -5 34 -6 89 -5 l57 1 0 748 c0 411
0 767 1 790 l0 44 77 -99 c81 -103 81 -103 114 -143 12 -14 33 -41 48 -60 14
-19 28 -37 31 -40 3 -3 30 -36 60 -75 30 -38 57 -72 60 -75 16 -16 90 -110 90
-115 0 -3 10 -17 23 -30 12 -13 27 -30 32 -37 28 -37 132 -166 151 -188 25
-28 140 -167 182 -219 15 -18 32 -38 37 -45 15 -17 138 -168 155 -190 8 -11
27 -32 42 -48 14 -15 25 -28 22 -28 -2 0 7 -12 20 -27 13 -16 58 -70 101 -121
43 -51 79 -92 80 -90 15 15 18 205 22 1075 l5 1002 -64 -2 -63 -2 -2 -140 c-1
-77 -4 -408 -7 -735 -2 -327 -5 -597 -5 -599 -1 -3 -110 132 -161 199 -14 18
-30 38 -36 44 -6 6 -26 31 -45 56 -68 89 -549 693 -558 700 -3 3 -18 21 -32
40 -15 19 -35 45 -45 57 -11 12 -28 32 -38 45 -114 141 -227 252 -286 282 -40
20 -58 27 -120 43 -35 9 -277 10 -302 1z"/>
<path d="M12641 6786 c-76 -19 -62 -43 29 -53 55 -6 107 -32 152 -75 l34 -33
3 -390 c3 -582 9 -1406 10 -1437 l1 -28 685 0 685 0 0 64 0 63 -530 0 c-292 0
-534 3 -538 7 -4 4 -8 127 -8 272 -1 145 -4 271 -8 279 -3 8 -2 16 3 19 4 3 6
20 5 38 -2 18 -6 245 -9 503 -3 259 -8 488 -10 510 -2 22 -7 63 -10 91 -10 96
-47 149 -120 169 -46 13 -324 13 -374 1z"/>
<path d="M11494 6695 c-157 -373 -172 -410 -194 -460 -5 -11 -32 -76 -60 -145
-29 -69 -60 -144 -71 -167 -10 -24 -19 -45 -19 -48 0 -2 -13 -34 -30 -70 -16
-36 -30 -68 -30 -71 0 -3 -6 -20 -14 -37 -8 -18 -31 -72 -52 -122 -20 -49 -41
-94 -46 -100 -4 -5 -8 -15 -8 -22 0 -7 -11 -36 -24 -65 -27 -59 -107 -250
-156 -373 -18 -44 -38 -93 -45 -110 -23 -52 -44 -134 -36 -139 4 -3 25 -1 46
4 21 5 41 8 44 8 34 -3 48 6 63 40 8 20 52 127 97 237 84 206 93 229 112 268
l10 23 242 -3 c133 -2 322 -4 421 -6 l179 -3 34 -84 c108 -267 190 -382 313
-441 145 -70 380 -76 380 -10 0 21 -36 48 -71 53 -73 11 -137 70 -189 174 -14
27 -28 51 -32 52 -5 2 -8 8 -8 13 0 6 -11 34 -24 62 -13 29 -33 72 -44 97 -25
56 -284 686 -342 830 -23 58 -47 119 -54 135 -29 67 -41 97 -103 250 -36 88
-70 171 -76 185 -5 14 -11 27 -12 30 -6 19 -27 69 -36 87 -10 18 -19 21 -69
20 l-58 -1 -38 -91z m41 -457 c19 -40 35 -78 35 -84 0 -7 4 -14 8 -16 19 -8
269 -634 258 -646 -15 -14 -667 -24 -681 -10 -6 5 53 175 81 235 8 18 21 51
29 73 8 22 21 55 29 73 24 52 49 111 51 122 2 6 14 36 29 67 14 31 26 59 26
61 0 11 90 197 95 197 3 0 21 -32 40 -72z"/>
<path d="M5048 6772 c-49 -1 -89 -6 -89 -10 -3 -18 -8 -314 -14 -922 -4 -366
-8 -755 -10 -865 l-2 -200 -34 -70 c-45 -91 -109 -156 -174 -175 -39 -12 -51
-20 -53 -38 -2 -13 5 -33 15 -44 32 -36 145 -14 264 50 123 67 194 135 245
234 l34 67 6 838 c3 461 6 903 7 981 1 79 0 147 -3 151 -5 7 -46 8 -192 3z"/>
</g>
</svg>
