<svg fill="#ffffff" version="1.1" xmlspace="preserve" xmlns="http://www.w3.org/2000/svg" viewBox="80.65 0 97.47 63.56">
   <g transform="translate(-3.9834 .06602)">
      <path
         d="m98.398 53.308-8.0996-10.183v19.831h-1.8521v-11.108c0-13.021-0.10961-13.488-3.1665-13.488-0.30153 0-0.53766-0.17612-0.53766-0.40103 0-0.62129 4.0252-0.5468 5.424 0.10034 1.3961 0.64595 2.3661 1.7392 9.3996 10.594l5.9463 7.4859 0.1392-18.581h1.5806v12.966c0 10.879-0.0591 12.966-0.36703 12.966-0.20186 0-3.8455-4.7212-8.4667-10.183zm59.821 9.4844c-1.8241-0.56653-3.0892-1.9723-4.2036-4.6712l-0.92899-2.2499-10.556-0.1443-2.9188 7.0956-0.9762 0.083c-1.1993 0.10197-1.8392 1.9836 4.3017-12.649l5.2736-12.565h1.4811l4.2538 10.427c5.4699 13.408 5.4334 13.341 7.5923 13.869 0.87843 0.21461 0.95651 0.84528 0.13229 1.0685-0.93174 0.25231-2.0725 0.16551-3.4509-0.26256zm-6.1911-8.8596c0.1817-0.32329-4.1053-10.546-4.3229-10.309-0.37605 0.41088-4.4284 10.215-4.283 10.361 0.22374 0.22608 8.4776 0.1752 8.6059-0.0531zm-37.403-1.3368c-0.0202-13.26-0.2015-14.237-2.6448-14.237-0.51606 0-0.779-0.13536-0.779-0.40102 0-0.58924 12.113-0.58347 14.942 7e-3 6.5307 1.3631 9.9284 5.4669 9.9284 11.991 0 9.158-4.8488 12.984-16.47 12.995l-4.9609 5e-3zm10.335 8.4336c7.9841-2.3588 9.3847-16.069 2.1032-20.587-2.4828-1.5407-7.9579-1.9617-8.7672-0.67431-0.43217 0.68747-0.25561 21.05 0.184 21.221 1.4746 0.57179 4.6159 0.59161 6.48 0.0409zm39.894-9.7268-0.0742-11.653-0.74236-0.64504c-0.4739-0.41177-1.0719-0.64506-1.6536-0.64506-0.63364 0-0.91129-0.12218-0.91129-0.40103 0-0.49652 4.61-0.58158 5.6469-0.1042 1.3232 0.60923 1.3588 0.91918 1.4444 12.603l0.0798 10.895h13.466v1.6041h-17.182zm-76.548-25.231c-0.099-0.10238-0.18004-5.2791-0.18004-11.504 0-13.631 0.0777-13.233-2.6431-13.548-0.39292-0.0457-0.69631-0.28015-0.75178-0.58102l-0.093-0.50442 2.7956 0.094c4.5163 0.15186 4.3691-0.31722 4.385 13.974l0.0115 10.324 13.361 0.14622v1.6416l-8.3528 0.0722c-4.594 0.03971-8.4338-0.0116-8.5328-0.114z"
         stroke-width=".26458"></path>
   </g>
</svg>