<svg fill="#ffffff" version="1.1" xmlspace="preserve" xmlns="http://www.w3.org/2000/svg" viewBox="0 0.21 68.26 67.38">
    <g transform="translate(-3.9834 .06602)">
        <path
            d="m62.326 66.806c0.01051-0.32593 0.17639-0.50747 0.49348-0.50747 0.77487 0 1.7808-0.90554 2.3201-2.0886l0.49373-1.0831 0.26458-24.865 3.6039-0.15075-0.16432 24.763-0.55118 1.1418c-1.167 2.4174-6.522 4.7034-6.4603 2.791zm-52.39-40.075c-4.8963-1.2481-5.9531-2.344-5.9531-6.1732 0-2.4564 0.55535-3.4382 0.94282-1.6668 1.319 6.03 8.6771 8.7385 11.691 4.3035 1.7596-2.5892 0.42064-4.5263-5.6224-8.1338-6.1133-3.6494-7.1573-4.9451-6.9701-8.6506 0.4291-8.4975 15.569-8.2849 15.569 0.21863 0 3.1759-0.4349 3.3906-1.2572 0.62064-1.471-4.9553-7.4219-7.1041-10.371-3.745-2.3901 2.7222-1.1135 4.4978 6.5577 9.1204 5.2358 3.1551 6.3535 4.6204 6.0555 7.939-0.40182 4.4759-5.5572 7.4634-10.642 6.1672zm13.097-0.58235c0-0.11829 0.81325-2.1604 1.8072-4.538 0.99398-2.3776 3.3896-8.1394 5.3235-12.804l3.5163-8.4811 0.66333 0.0825 0.66333 0.0826 3.7989 9.4823c5.2421 13.084 5.1347 12.833 5.891 13.754 0.37188 0.45255 1.1931 1.0569 1.825 1.3431 1.4769 0.66894 1.3093 1.1364-0.44482 1.2407-3.234 0.1924-5.3651-1.457-6.8232-5.2812l-0.80693-2.1163-10.544-0.14622-3.0831 7.5967h-0.89334c-0.49134 0-0.89334-0.0968-0.89334-0.21508zm14.203-9.8768c-0.19608-0.48428-1.1747-2.9218-2.1748-5.4167-1.0001-2.495-1.9003-4.4456-2.0005-4.3347-0.13713 0.15161-3.3988 7.7942-4.393 10.294-0.10466 0.26311 0.87578 0.33866 4.3951 0.33866h4.5298zm13.177 9.7532c-0.06647-0.18626-0.15203-5.5614-0.19013-11.944l-0.06927-11.606-0.62462-0.51771c-0.34355-0.28475-1.0154-0.51772-1.493-0.51772-0.92225 0-1.4937-0.71028-0.79299-0.98562 0.21324-0.0838 1.4491-0.10966 2.7463-0.0574 3.7229 0.14975 3.9971 0.65343 3.9994 7.3474l0.0016 4.2724 11.245-0.14622 0.14282-11.514h3.4291l0.0016 11.04c0.0019 13.317 0.10701 13.885 2.5709 13.885 0.70889 0 0.86717 0.10551 0.86717 0.57807v0.57806l-2.5799-0.12721c-4.2103-0.2076-4.2995-0.3618-4.2995-7.436v-4.9716h-11.377v12.463h-1.7281c-1.1416 0-1.7691-0.11494-1.849-0.33865z"
            stroke-width=".26458"></path>
    </g>
</svg>