<?xml version="1.0" encoding="UTF-8" standalone="no"?>
<svg fill="#ffffff" width="186.77998mm" height="69.874001mm" viewBox="0 0 186.77998 69.874" xmlSpace="preserve"
   id="sahil-logo" xmlns="http://www.w3.org/2000/svg" xmlns:svg="http://www.w3.org/2000/svg">
   <defs id="defs72" />
   <g transform="translate(-14.658,-113.61)" id="g66">
      <image x="-20.287001" y="9.9160004" width="264.57999" height="264.57999" display="none"
         image-rendering="optimizeQuality" preserveAspectRatio="none" id="image58" />
      <path
         d="m 76.934119,180.26222 c 0.01041,-0.32593 0.17639,-0.50747 0.49348,-0.50747 0.77487,0 1.780806,-0.90554 2.3201,-2.08857 l 0.49373,-1.08308 0.26458,-24.86549 3.6039,-0.15075 -0.16432,24.76288 -0.55118,1.14176 c -1.16699,2.41741 -6.521364,4.70345 -6.4603,2.79103 z m 14.44775,-34.53676 0.06719,-31.76858 3.3073,-0.15416 v 63.69074 h -3.4417 z m 21.677311,21.34664 -8.0996,-10.18257 v 19.83059 h -1.8521 v -11.10816 c 0,-13.02099 -0.10961,-13.48783 -3.166499,-13.48783 -0.30153,0 -0.53766,-0.17612 -0.53766,-0.40103 0,-0.62129 4.025199,-0.5468 5.423999,0.10034 1.3961,0.64595 2.3661,1.73922 9.3996,10.59383 l 5.9463,7.48591 0.0696,-9.29062 0.0696,-9.29062 h 1.5806 v 12.96643 c 0,10.87878 -0.0591,12.96642 -0.36703,12.96642 -0.20186,0 -3.84554,-4.72119 -8.4667,-10.18256 z m 59.821,9.48442 c -1.8241,-0.56653 -3.0892,-1.97226 -4.2036,-4.67123 l -0.92899,-2.24992 -10.556,-0.1443 -1.4594,3.54778 -1.4594,3.54778 -0.9762,0.083 c -1.1993,0.10197 -1.8392,1.98357 4.3017,-12.64913 l 5.2736,-12.56527 h 1.4811 l 4.2538,10.4271 c 5.46988,13.408 5.4334,13.34131 7.5923,13.86878 0.87843,0.21461 0.95651,0.84528 0.13229,1.06848 -0.93174,0.25231 -2.0725,0.16551 -3.4509,-0.26256 z m -6.1911,-8.85955 c 0.1817,-0.32329 -4.1053,-10.54633 -4.3229,-10.30887 -0.37605,0.41088 -4.4284,10.2149 -4.283,10.36142 0.22374,0.22608 8.4776,0.1752 8.6059,-0.0531 z m -37.403,-1.33675 c -0.0202,-13.26048 -0.2015,-14.2366 -2.6448,-14.2366 -0.51606,0 -0.779,-0.13536 -0.779,-0.40102 0,-0.58924 12.113,-0.58347 14.942,0.007 6.5307,1.36313 9.9284,5.46688 9.9284,11.99131 0,9.15805 -4.8488,12.98361 -16.47,12.99472 l -4.9609,0.005 z m 10.335,8.43363 c 7.9841,-2.35876 9.3847,-16.06859 2.1032,-20.58743 -2.4828,-1.54068 -7.9579,-1.96174 -8.7672,-0.67431 -0.43217,0.68747 -0.25561,21.05022 0.184,21.22099 1.4746,0.57179 4.6159,0.59161 6.48,0.0409 z m 39.894,-9.72684 -0.0742,-11.65281 -0.74236,-0.64504 c -0.4739,-0.41178 -1.0719,-0.64506 -1.6536,-0.64506 -0.63364,0 -0.91129,-0.12218 -0.91129,-0.40103 0,-0.49652 4.61,-0.58158 5.6469,-0.1042 1.3232,0.60923 1.35883,0.91918 1.4444,12.60265 l 0.0798,10.89495 h 13.466 v 1.60413 h -17.182 z M 24.544239,140.1877 c -4.8963,-1.2481 -5.9531,-2.344 -5.9531,-6.1732 0,-2.4564 0.55535,-3.4382 0.94282,-1.6668 1.319,6.03 8.6771,8.7385 11.691,4.3035 1.7596,-2.5892 0.42064,-4.5263 -5.6224,-8.1338 -6.1133,-3.6494 -7.1573,-4.9451 -6.9701,-8.6506 0.4291,-8.4975 15.569,-8.2849 15.569,0.21863 0,3.1759 -0.4349,3.3906 -1.2572,0.62064 -1.471,-4.9553 -7.4219,-7.1041 -10.371,-3.745 -2.3901,2.7222 -1.1135,4.4978 6.5577,9.1204 5.2358,3.1551 6.3535,4.6204 6.0555,7.939 -0.40182,4.4759 -5.5572,7.4634 -10.642,6.1672 z m 13.097,-0.58235 c 0,-0.11829 0.81325,-2.16035 1.8072,-4.53798 0.99398,-2.37762 3.3896,-8.13943 5.3235,-12.80356 l 3.5163,-8.48113 0.66333,0.0825 0.66333,0.0826 3.7989,9.48225 c 5.2421,13.08413 5.1347,12.83326 5.891,13.75379 0.37188,0.45255 1.1931,1.05693 1.825,1.34313 1.4769,0.66894 1.3093,1.13639 -0.44482,1.24073 -3.234,0.1924 -5.3651,-1.45699 -6.8232,-5.28116 l -0.80693,-2.11632 -10.544,-0.14622 -3.0831,7.59674 h -0.89334 c -0.49134,0 -0.89334,-0.0968 -0.89334,-0.21508 z m 14.203,-9.87679 c -0.19608,-0.48428 -1.1747,-2.92176 -2.1748,-5.41673 -1.0001,-2.49497 -1.9003,-4.44561 -2.0005,-4.33472 -0.13713,0.15161 -3.3988,7.79416 -4.393,10.29384 -0.10466,0.26311 0.87578,0.33866 4.3951,0.33866 h 4.5298 z m 13.177,9.7532 c -0.06647,-0.18626 -0.152031,-5.56142 -0.19013,-11.94446 l -0.06927,-11.60554 -0.62462,-0.51771 c -0.343551,-0.28475 -1.0154,-0.51772 -1.493,-0.51772 -0.92225,0 -1.4937,-0.71028 -0.79299,-0.98562 0.21324,-0.0838 1.4491,-0.10966 2.7463,-0.0574 3.7229,0.14975 3.9971,0.65343 3.9994,7.34741 l 0.0016,4.27236 11.245,-0.14622 0.07141,-5.7571 0.07141,-5.7571 h 3.4291 l 0.0016,11.04031 c 0.0019,13.31656 0.10701,13.88486 2.5709,13.88486 0.70889,0 0.86717,0.10551 0.86717,0.57807 v 0.57806 l -2.5799,-0.12721 c -4.2103,-0.20759 -4.2995,-0.3618 -4.2995,-7.43597 v -4.97162 h -11.377 v 12.46258 h -1.7281 c -1.1416,0 -1.7691,-0.11494 -1.849,-0.33865 z m 37.945971,0.35425 c -0.099,-0.10238 -0.18004,-5.27906 -0.18004,-11.50409 0,-13.63118 0.0777,-13.23306 -2.6431,-13.54845 -0.39292,-0.0457 -0.69631,-0.28015 -0.75178,-0.58102 l -0.093,-0.50442 2.7956,0.094 c 4.5163,0.1519 4.36908,-0.31722 4.385,13.97449 l 0.0115,10.32369 13.361,0.14622 v 1.64159 l -8.3528,0.0722 c -4.594,0.0397 -8.4338,-0.0116 -8.5328,-0.114 z"
         stroke-width="0.26458" id="path60" />
   </g>
</svg>